<?xml version="1.0" standalone="no"?>
<!DOCTYPE svg PUBLIC "-//W3C//DTD SVG 1.1//EN" "http://www.w3.org/Graphics/SVG/1.1/DTD/svg11.dtd" >
<svg xmlns="http://www.w3.org/2000/svg">
<metadata>
This is a custom SVG webfont generated by Font Squirrel.
Copyright   :  199097 Apple Computer Inc  199097 Type Solutions Inc  199097 The Font Bureau Inc
</metadata>
<defs>
<font id="MonacoRegular" horiz-adv-x="1167" >
<font-face units-per-em="2048" ascent="1614" descent="-434" />
<missing-glyph horiz-adv-x="500" />
<glyph unicode=" " />
<glyph unicode="!" d="M447 92q0 56 40.5 96t96.5 40q55 0 95.5 -39.5t40.5 -96.5t-41 -97t-95 -40q-56 0 -96.5 40.5t-40.5 96.5zM459 1474h235l-44 -1054h-147z" />
<glyph unicode="&#x22;" d="M259 1533h237l-54 -531h-122zM676 1533h232l-57 -531h-120z" />
<glyph unicode="#" d="M67 398v133h187l104 391h-291v132h324l112 420h138l-111 -420h269l116 420h139l-114 -420h159v-132h-197l-103 -391h300v-133h-337l-108 -398h-141l110 398h-265l-104 -398h-141l105 398h-151zM393 531h266l108 391h-272z" />
<glyph unicode="$" d="M153 78v182q63 -32 123 -55t127 -36t148 -19v529l-102 55q-288 155 -288 375q0 117 95.5 227.5t294.5 127.5v158h133v-158q112 0 265 -39v-164l-33 9q-144 40 -232 49v-517l106 -61q150 -86 206 -170t56 -178q0 -84 -42.5 -163.5t-121.5 -136.5t-204 -79v-161h-133v149 q-64 0 -132 6.5t-128 20.5t-138 49zM352 1130q0 -63 44 -121.5t155 -126.5v438q-96 -21 -147.5 -71.5t-51.5 -118.5zM684 163q104 37 140.5 91t36.5 120q0 65 -36.5 111t-140.5 115v-437z" />
<glyph unicode="%" d="M2 -45l1008 1563h157l-1009 -1563h-156zM3 1106q0 163 79 265.5t216 102.5q138 0 216.5 -102.5t78.5 -265.5q0 -165 -78.5 -267t-216.5 -102q-137 0 -216 102t-79 267zM151 1106q0 -104 35 -177.5t112 -73.5q76 0 112 73.5t36 177.5q0 102 -36 176t-112 74 q-77 0 -112 -74t-35 -176zM574 369q0 165 79.5 266.5t212.5 101.5q132 0 215 -98.5t83 -254.5q0 -180 -87.5 -282t-212.5 -102q-121 0 -205.5 97.5t-84.5 271.5zM722 363q0 -125 43.5 -185t102.5 -60q63 0 105.5 65.5t42.5 188.5q0 97 -35.5 172t-111.5 75q-75 0 -111 -72 t-36 -184z" />
<glyph unicode="&#x26;" d="M2 364q0 250 260 466q-78 98 -117.5 183t-39.5 158q0 89 47 172.5t128.5 129t180.5 45.5q131 0 219.5 -70t88.5 -202q0 -96 -54 -191.5t-223 -224.5l336 -414q15 48 19 78t7 111t3 100v46h177v-44q0 -63 -13.5 -180.5t-80.5 -249.5l227 -277h-227l-103 124 q-94 -99 -185.5 -134t-198.5 -35q-203 0 -327 115t-124 294zM174 378q0 -123 82.5 -199t200.5 -76q63 0 126.5 21.5t155.5 116.5l-385 473q-180 -155 -180 -336zM282 1202q0 -43 11.5 -87t85.5 -144l21 -29q96 68 152 148t56 145q0 62 -39.5 106t-122.5 44q-73 0 -118.5 -53 t-45.5 -130z" />
<glyph unicode="'" d="M422 1533h324l-97 -590h-127z" />
<glyph unicode="(" d="M179 604q0 226 107.5 451.5t288 358t443.5 149.5v-148q-198 -19 -341 -134t-225 -294t-82 -383t82 -382.5t225 -293.5t341 -134v-147q-263 16 -443.5 148.5t-288 357.5t-107.5 451z" />
<glyph unicode=")" d="M149 -206q199 19 342 134t225 293.5t82 382.5t-82 383t-225 294t-342 134v148q263 -17 443.5 -149.5t288.5 -358t108 -451.5t-108 -451t-288.5 -357.5t-443.5 -148.5v147z" />
<glyph unicode="*" d="M156 929l291 143l-291 144l88 151l269 -179l-20 330h179l-25 -330l275 179l89 -151l-293 -144l293 -143l-89 -154l-275 181l25 -330h-179l20 330l-269 -181z" />
<glyph unicode="+" d="M67 442v148h442v442h148v-442h442v-148h-442v-442h-148v442h-442z" />
<glyph unicode="," d="M403 -294q68 18 103.5 51.5t57 85.5t21.5 125q-88 0 -130 49.5t-42 106.5q0 66 46.5 111t108.5 45q80 0 138 -69t58 -188q0 -105 -45.5 -197.5t-124 -158t-191.5 -79.5v118z" />
<glyph unicode="-" d="M216 523v148h737v-148h-737z" />
<glyph unicode="." d="M428 110q0 65 46.5 110t108.5 45q63 0 109 -45t46 -110q0 -63 -45.5 -109t-109.5 -46q-63 0 -109 46t-46 109z" />
<glyph unicode="/" d="M31 -45l938 1563h168l-932 -1563h-174z" />
<glyph unicode="0" d="M67 737q0 358 132.5 569.5t383.5 211.5q252 0 384 -211.5t132 -569.5q0 -359 -132 -570.5t-384 -211.5q-251 0 -383.5 211.5t-132.5 570.5zM259 748q0 -62 4 -133.5t32 -192.5l511 799q-49 88 -105.5 119t-117.5 31q-158 0 -241 -176.5t-83 -446.5zM363 241 q41 -69 94 -103.5t119 -34.5q180 0 256 201.5t76 447.5q0 152 -39 293z" />
<glyph unicode="1" d="M179 0v147h361v1138q-80 -63 -155 -108t-206 -91v159q208 89 361 229h176v-1327h355v-147h-892z" />
<glyph unicode="2" d="M142 0v162q0 63 25.5 135t97.5 161t153 172l101 102l133 146q102 114 135 174.5t33 119.5q0 95 -76 147t-171 52q-54 0 -121 -12.5t-117.5 -29t-163.5 -67.5v156q120 57 240 78.5t198 21.5q115 0 211.5 -37.5t143.5 -116.5t47 -168q0 -100 -60.5 -204.5t-227.5 -268.5 l-108 -107l-92 -90q-86 -87 -139 -168.5t-59 -195.5h709v-162h-892z" />
<glyph unicode="3" d="M138 27v186q217 -110 377 -110q146 0 241.5 88.5t95.5 228.5t-105 228.5t-357 88.5h-97v147h135q186 0 268.5 83.5t82.5 184.5q0 92 -67.5 155.5t-207.5 63.5q-156 0 -337 -89v169q181 67 331 67q269 0 371 -106t102 -242q0 -100 -54 -188.5t-200 -157.5 q129 -38 194.5 -93.5t99 -130.5t33.5 -168q0 -207 -153.5 -342t-396.5 -135q-70 0 -153.5 10.5t-202.5 61.5z" />
<glyph unicode="4" d="M46 412v148l626 914h177v-914h273v-148h-273v-412h-177v412h-626zM234 560h438v646z" />
<glyph unicode="5" d="M149 25v193q81 -44 180.5 -72t184.5 -28q84 0 165 41t125.5 119t44.5 160q0 138 -122 233.5t-433 95.5h-115v707h825v-170h-649v-361h31q318 0 490 -133t172 -358q0 -142 -69.5 -255t-196 -177.5t-268.5 -64.5q-143 0 -365 70z" />
<glyph unicode="6" d="M97 721q0 369 162.5 583t439.5 214q149 0 290 -44v-178q-158 75 -297 75q-198 0 -306.5 -181.5t-108.5 -459.5v-38q69 101 170 165.5t223 64.5q115 0 218 -56.5t157 -156.5t54 -233q0 -210 -134.5 -365.5t-353.5 -155.5q-259 0 -386.5 216.5t-127.5 549.5zM348 430 q0 -144 84 -235.5t192 -91.5q71 0 143.5 42t113.5 130t41 191q0 135 -69.5 221.5t-198.5 86.5q-134 0 -220 -100t-86 -244z" />
<glyph unicode="7" d="M156 1297v177h936v-117q0 -71 -28 -130.5t-170 -255.5l-68 -93l-98 -139q-95 -134 -140.5 -213.5t-69 -166t-23.5 -227.5v-132h-192v132q0 155 35 260.5t123.5 234.5t141.5 199l154 204l55 71q63 85 109 196h-765z" />
<glyph unicode="8" d="M126 337q0 243 310 458l-32 24q-68 47 -132.5 140t-64.5 204q0 147 116 251t295 104q109 0 196.5 -39.5t135 -116.5t47.5 -168q0 -63 -22 -121t-65.5 -115.5t-171.5 -162.5l80 -63q140 -114 188 -197t48 -185q0 -160 -115.5 -277.5t-347.5 -117.5q-233 0 -349 110 t-116 272zM318 340q0 -100 83 -168t196 -68q103 0 185 65.5t82 162.5q0 96 -99.5 195t-138.5 129l-57 45q-251 -193 -251 -361zM377 1175q0 -66 46.5 -125t149.5 -132l45 -33q133 102 167 170.5t34 127.5q0 71 -62.5 129.5t-161.5 58.5q-107 0 -162.5 -63.5t-55.5 -132.5z " />
<glyph unicode="9" d="M67 998q0 209 134.5 364.5t354.5 155.5q258 0 386 -216t128 -550q0 -368 -162.5 -582.5t-440.5 -214.5q-149 0 -289 45v178q157 -74 297 -74q198 0 306 181t108 460v38q-68 -102 -169.5 -166t-222.5 -64q-115 0 -218 55.5t-157.5 156t-54.5 233.5zM244 1007 q0 -134 70 -220.5t199 -86.5q134 0 220 100.5t86 242.5q0 145 -84 236.5t-193 91.5q-71 0 -143 -42.5t-113.5 -129.5t-41.5 -192z" />
<glyph unicode=":" d="M428 110q0 65 46.5 110t108.5 45q63 0 109 -45t46 -110q0 -63 -45.5 -109t-109.5 -46q-63 0 -109 46t-46 109zM428 936q0 64 46.5 109.5t108.5 45.5q63 0 109 -45.5t46 -109.5t-45.5 -109.5t-109.5 -45.5q-63 0 -109 45.5t-46 109.5z" />
<glyph unicode=";" d="M403 -294q68 18 103.5 51.5t57 85.5t21.5 125q-88 0 -130 49.5t-42 106.5q0 66 46.5 111t108.5 45q80 0 138 -69t58 -188q0 -105 -45.5 -197.5t-124 -158t-191.5 -79.5v118zM413 936q0 64 46 109.5t109 45.5t109 -45.5t46 -109.5t-45.5 -109.5t-109.5 -45.5t-109.5 45.5 t-45.5 109.5z" />
<glyph unicode="&#x3c;" d="M67 516l1032 516v-165l-705 -350l705 -355v-162z" />
<glyph unicode="=" d="M67 273v147h1032v-147h-1032zM67 604v147h1032v-147h-1032z" />
<glyph unicode="&#x3e;" d="M67 0v164l706 351l-706 354v163l1032 -516z" />
<glyph unicode="?" d="M197 1262v171q175 85 367 85q213 0 324.5 -87t111.5 -225q0 -137 -144 -284l-63 -65l-74 -77l-67 -69q-37 -42 -65.5 -96.5t-28.5 -150.5v-44h-177v33q0 79 13.5 131.5t51 109t112.5 136.5l59 63q17 18 49 59l63 79q79 99 79 171q0 66 -57 117.5t-185 51.5 q-82 0 -168 -22.5t-201 -86.5zM342 92q0 56 40.5 96t95.5 40q56 0 96.5 -39.5t40.5 -96.5t-41 -97t-96 -40t-95.5 40.5t-40.5 96.5z" />
<glyph unicode="@" d="M2 742q0 346 158.5 561t428.5 215q267 0 422.5 -190t155.5 -500q0 -136 -40 -224t-105.5 -140t-158.5 -52q-73 0 -118.5 32t-68.5 147q-26 -62 -81 -120.5t-149 -58.5q-98 0 -162.5 89t-64.5 218q0 159 92 295t331 136h182v-417q0 -82 6 -117t25.5 -53t42.5 -18 q37 0 74.5 36t57 101t19.5 141q0 158 -58 308t-172 213.5t-239 63.5q-132 0 -232 -79.5t-164 -238t-64 -350.5q0 -193 63.5 -357.5t172 -240.5t241.5 -76q151 0 278 124v-149q-80 -52 -141.5 -69t-133.5 -17q-197 0 -323 96.5t-200.5 269t-74.5 421.5zM374 713 q0 -73 23 -113t63 -40q56 0 114.5 65.5t101.5 143.5v255h-34q-112 0 -161.5 -35t-78 -110t-28.5 -166z" />
<glyph unicode="A" d="M31 0l454 1474h195l457 -1474h-202l-101 324h-519l-99 -324h-185zM361 471h430l-177 560l-42 148l-37 -148z" />
<glyph unicode="B" d="M163 0v1474h288q260 0 347.5 -39t131.5 -116t44 -176q0 -78 -26 -148t-76 -127.5t-146 -108.5q176 -70 238 -172.5t62 -205.5q0 -98 -52.5 -190t-147.5 -141.5t-304 -49.5h-359zM355 147h182q152 0 224.5 72t72.5 172q0 75 -40 137t-123.5 98.5t-262.5 36.5h-53v-516z M355 810h202q98 41 143 86t67 101t22 122q0 105 -61 156t-239 51h-134v-516z" />
<glyph unicode="C" d="M112 737q0 229 80 411.5t225 276.5t320 94q131 0 297 -62v-175q-153 89 -304 89q-114 0 -208.5 -78t-152.5 -228.5t-58 -327.5q0 -179 59.5 -331t153 -227.5t206.5 -75.5q150 0 304 88v-174q-166 -62 -297 -62q-173 0 -318 93t-226 275.5t-81 413.5z" />
<glyph unicode="D" d="M147 0v1474h350q241 0 358.5 -84t176.5 -254t59 -403q0 -220 -62.5 -386.5t-176.5 -256.5t-355 -90h-350zM339 162h128q195 0 278 69.5t119 192.5t36 340q0 212 -42 326t-120 175t-255 61h-144v-1164z" />
<glyph unicode="E" d="M193 0v1474h781v-148h-589v-500h530v-148h-530v-516h604v-162h-796z" />
<glyph unicode="F" d="M216 0v1474h810v-148h-618v-500h559v-148h-559v-678h-192z" />
<glyph unicode="G" d="M112 737q0 229 80 411.5t225 276.5t319 94q131 0 297 -62v-175q-153 89 -304 89q-114 0 -208.5 -78t-152 -228.5t-57.5 -329.5q0 -239 109 -435.5t345 -196.5q30 0 77 4v475h-148v148h340v-729q-156 -46 -286 -46q-185 0 -328.5 91.5t-225.5 275t-82 415.5z" />
<glyph unicode="H" d="M120 0v1474h192v-634h545v634h191v-1474h-191v693h-545v-693h-192z" />
<glyph unicode="I" d="M163 0v147h324v1179h-324v148h840v-148h-324v-1179h324v-147h-840z" />
<glyph unicode="J" d="M104 32v181q208 -109 347 -109q73 0 133.5 28.5t96 95t35.5 286.5v812h-331v148h523v-965q0 -235 -53.5 -339t-150.5 -159.5t-248 -55.5q-169 0 -352 77z" />
<glyph unicode="K" d="M149 0v1474h192v-723l548 723h203l-529 -700l604 -774h-241l-585 751v-751h-192z" />
<glyph unicode="L" d="M208 0v1474h192v-1312h604v-162h-796z" />
<glyph unicode="M" d="M53 0v1474h193l340 -970l340 970h188v-1474h-176v940l4 129h-4l-42 -129l-228 -646h-192l-231 646l-37 129h-5l5 -129v-940h-155z" />
<glyph unicode="N" d="M120 0v1474h173l521 -981l57 -146h5l-5 146v981h177v-1474h-177l-507 965l-71 155l3 -153v-967h-176z" />
<glyph unicode="O" d="M67 737q0 358 132.5 569.5t383.5 211.5q252 0 384 -211.5t132 -569.5q0 -359 -132 -570.5t-384 -211.5q-251 0 -383.5 211.5t-132.5 570.5zM259 737q0 -319 93 -476t231 -157q139 0 231.5 157t92.5 476t-92.5 476.5t-231.5 157.5q-138 0 -231 -157.5t-93 -476.5z" />
<glyph unicode="P" d="M167 0v1474h367q226 0 329.5 -50.5t158.5 -148.5t55 -219q0 -141 -74 -263.5t-206.5 -188.5t-359.5 -66h-78v-538h-192zM359 685h83q177 0 263.5 46t133 132.5t46.5 187.5q0 127 -83 201t-328 74h-115v-641z" />
<glyph unicode="Q" d="M67 760q0 321 128.5 539.5t387.5 218.5q251 0 383.5 -211t132.5 -571q0 -171 -34.5 -327t-119.5 -274.5t-236 -162.5q66 -110 118.5 -152.5t136 -63.5t185.5 -21h17v-147h-45q-183 0 -267 38t-158 116.5t-135 214.5q-173 19 -274.5 110.5t-160.5 282.5t-59 410zM259 737 q0 -319 93 -476t231 -157q139 0 231.5 157t92.5 476t-92.5 476.5t-231.5 157.5q-138 0 -231 -157.5t-93 -476.5z" />
<glyph unicode="R" d="M142 0v1474h394q193 0 284 -39t141 -119t50 -172q0 -86 -33.5 -172.5t-92 -154t-168.5 -128.5l427 -689h-228l-391 626h-192v-626h-191zM333 774h269q91 50 135 101t66.5 109t22.5 116q0 104 -75.5 165t-273.5 61h-144v-552z" />
<glyph unicode="S" d="M149 31v181q228 -108 414 -108q78 0 149.5 29.5t108 86t36.5 121.5q0 77 -50.5 144t-188.5 148l-97 56l-98 56q-259 153 -259 380q0 166 115.5 279.5t360.5 113.5q158 0 305 -46v-164q-162 63 -316 63q-123 0 -198.5 -64.5t-75.5 -156.5q0 -90 58 -150t148 -110l75 -44 l92 -57l78 -45q242 -148 242 -373q0 -171 -124.5 -293.5t-399.5 -122.5q-87 0 -166.5 15t-208.5 61z" />
<glyph unicode="T" d="M46 1312v162h1076v-162h-443v-1312h-192v1312h-441z" />
<glyph unicode="U" d="M120 531v943h192v-968q0 -191 31.5 -260.5t97.5 -106t147 -36.5q86 0 153 39t98.5 123.5t31.5 315.5v893h177v-962q0 -206 -61.5 -322.5t-160 -175.5t-248.5 -59q-139 0 -244.5 51.5t-159.5 154t-54 370.5z" />
<glyph unicode="V" d="M31 1474h203l320 -1029l42 -151l37 150l320 1030h184l-454 -1474h-195z" />
<glyph unicode="W" d="M27 1474h174l101 -897l13 -149h5l19 149l155 897h175l177 -933l18 -143h4l12 144l111 932h150l-179 -1474h-181l-190 999l-20 151h-5l-18 -151l-171 -999h-179z" />
<glyph unicode="X" d="M46 0l431 770l-390 704h218l282 -508l289 508h200l-389 -689l435 -785h-221l-324 588l-332 -588h-199z" />
<glyph unicode="Y" d="M49 1474h218l328 -585l327 585h196l-438 -792v-682h-192v682z" />
<glyph unicode="Z" d="M116 0v162l700 1164h-678v148h899v-148l-699 -1164h714v-162h-936z" />
<glyph unicode="[" d="M337 -353v1916h767v-148h-590v-1621h590v-147h-767z" />
<glyph unicode="\" d="M31 1518h169l937 -1563h-174z" />
<glyph unicode="]" d="M64 -206h590v1621h-590v148h766v-1916h-766v147z" />
<glyph unicode="^" d="M67 442l516 1032l516 -1032h-162l-354 709l-353 -709h-163z" />
<glyph unicode="_" d="M67 0h1032v-147h-1032v147z" />
<glyph unicode="`" d="M304 1533h205l281 -309h-161z" />
<glyph unicode="a" d="M97 434q0 184 70.5 329t188 229t291.5 84q50 0 152 -10q15 -2 46 -5h177v-749q0 -192 40 -312h-184q-21 87 -33 238q-81 -133 -194.5 -200t-208.5 -67q-133 0 -239 114.5t-106 348.5zM289 458q0 -158 59.5 -238t135.5 -80q82 0 182 83.5t179 224.5v455q-95 25 -175 25 q-164 0 -272.5 -126.5t-108.5 -343.5z" />
<glyph unicode="b" d="M134 0v1533h177v-710q81 133 194 200.5t208 67.5q133 0 239.5 -115t106.5 -349q0 -184 -70.5 -329t-188.5 -229t-292 -84q-49 0 -152 10q-15 2 -45 5h-177zM311 158q96 -25 176 -25q161 0 270.5 126t109.5 344q0 159 -59.5 239t-135.5 80q-83 0 -182.5 -84t-178.5 -225 v-455z" />
<glyph unicode="c" d="M156 530q0 241 157 401t380 160q164 0 347 -62v-170q-185 84 -331 84q-97 0 -182.5 -48t-132 -149.5t-46.5 -208.5q0 -144 89.5 -274t281.5 -130q58 0 114 8t207 59v-170q-177 -59 -338 -59q-160 0 -284 73.5t-193 199.5t-69 286z" />
<glyph unicode="d" d="M108 434q0 184 70.5 329t188 229t291.5 84q51 0 152 -10q16 -2 46 -5v472h178v-1533h-178v238q-81 -133 -194.5 -200t-208.5 -67q-133 0 -239 114.5t-106 348.5zM300 458q0 -158 59.5 -238t135.5 -80q83 0 182.5 83.5t178.5 224.5v455q-94 25 -175 25q-163 0 -272 -126.5 t-109 -343.5z" />
<glyph unicode="e" d="M124 528q0 146 64.5 279.5t180 208.5t258.5 75q189 0 303.5 -135t114.5 -416v-38h-731q0 -111 46 -202t121 -136.5t171 -45.5q171 0 378 114v-162q-212 -100 -401 -100q-144 0 -257 71t-180.5 203.5t-67.5 283.5zM324 634h529v25q0 130 -63.5 207t-170.5 77t-185.5 -78 t-109.5 -231z" />
<glyph unicode="f" d="M159 826v147h235v49q0 210 47.5 311t147 165.5t262.5 64.5q124 0 251 -26v-168q-138 46 -244 46q-85 0 -149.5 -31.5t-101 -102.5t-36.5 -240v-68h421v-147h-421v-826h-177v826h-235z" />
<glyph unicode="g" d="M108 434q0 184 70.5 329t188 229t291.5 84q51 0 152 -10q16 -2 46 -5h178v-750q0 -268 -7.5 -327.5t-23.5 -120.5q-38 -141 -173.5 -223t-326.5 -82q-193 0 -391 99v179q75 -52 185 -91t212 -39q81 0 153 25.5t117 73.5q45 49 61 113t16 170v150q-81 -133 -194.5 -200 t-208.5 -67q-133 0 -239 114.5t-106 348.5zM300 458q0 -158 59.5 -238t135.5 -80q83 0 182.5 83.5t178.5 224.5v455q-94 25 -175 25q-163 0 -272 -126.5t-109 -343.5z" />
<glyph unicode="h" d="M147 0v1533h177v-704q76 123 183.5 192.5t214.5 69.5q90 0 164.5 -46.5t104.5 -111.5q24 -50 32.5 -106.5t8.5 -233.5v-593h-177v615q0 153 -14.5 201.5t-54 80t-86.5 31.5q-93 0 -200 -88.5t-176 -221.5v-618h-177z" />
<glyph unicode="i" d="M150 914v147h471v-914h296v-147h-472v914h-295zM415 1444q0 60 41 89.5t77 29.5q37 0 78 -29.5t41 -89.5q0 -59 -41 -88.5t-78 -29.5q-36 0 -77 29.5t-41 88.5z" />
<glyph unicode="j" d="M163 -251q149 -43 250 -43q89 0 150.5 30.5t96 104t34.5 254.5v819h-450v147h627v-933q0 -270 -63.5 -375t-154 -150.5t-246.5 -45.5q-113 0 -244 27v165zM665 1444q0 60 40.5 89.5t77.5 29.5t77.5 -29.5t40.5 -89.5q0 -59 -40.5 -88.5t-77.5 -29.5t-77.5 29.5 t-40.5 88.5z" />
<glyph unicode="k" d="M195 0v1533h176v-963l511 491h235l-509 -491l522 -570h-243l-516 570v-570h-176z" />
<glyph unicode="l" d="M115 1385v148h494v-1386h331v-147h-508v1385h-317z" />
<glyph unicode="m" d="M67 0v1061h155v-243q73 155 136.5 214t127.5 59q77 0 124 -60.5t47 -171.5v-57q32 97 76 157t91.5 96t109.5 36q68 0 116.5 -58t48.5 -231v-802h-155v725q0 89 -5.5 122t-22.5 50t-37 17q-50 0 -106.5 -75.5t-115.5 -250.5v-588h-148v724q0 140 -27.5 165t-49.5 25 q-48 0 -103.5 -84.5t-106.5 -216.5v-613h-155z" />
<glyph unicode="n" d="M147 0v1061h177v-232q76 123 183.5 192.5t214.5 69.5q94 0 171 -50t108 -131t31 -317v-593h-177v615q0 153 -14.5 201.5t-54 80t-86.5 31.5q-93 0 -200 -88.5t-176 -221.5v-618h-177z" />
<glyph unicode="o" d="M83 531q0 242 136.5 401t364.5 159q227 0 364 -159t137 -401t-137 -401t-364 -159q-228 0 -364.5 159t-136.5 401zM275 531q0 -193 83.5 -303t225.5 -110t225.5 110t83.5 303q0 192 -83.5 302t-225.5 110t-225.5 -110t-83.5 -302z" />
<glyph unicode="p" d="M134 -412v1473h177v-238q81 133 194 200.5t208 67.5q133 0 239.5 -115t106.5 -349q0 -184 -70.5 -329t-188.5 -229t-292 -84q-49 0 -152 10q-15 2 -45 5v-412h-177zM311 158q96 -25 176 -25q161 0 270.5 126t109.5 344q0 159 -59.5 239t-135.5 80q-83 0 -182.5 -84 t-178.5 -225v-455z" />
<glyph unicode="q" d="M108 434q0 184 70.5 329t188 229t291.5 84q51 0 152 -10q16 -2 46 -5h178v-1473h-178v650q-81 -133 -194.5 -200t-208.5 -67q-133 0 -239 114.5t-106 348.5zM300 458q0 -158 59.5 -238t135.5 -80q83 0 182.5 83.5t178.5 224.5v455q-94 25 -175 25q-163 0 -272 -126.5 t-109 -343.5z" />
<glyph unicode="r" d="M238 0v1061h176v-232q83 131 190 196.5t238 65.5q96 0 192 -30v-383h-170v243q-45 7 -71 7q-99 0 -194 -78t-185 -233v-617h-176z" />
<glyph unicode="s" d="M160 56v187q106 -69 225 -97t201 -28q134 0 193 43t59 108q0 43 -28 73q-27 30 -136 75l-61 25l-123 48q-197 77 -249 143q-52 64 -52 157q0 132 101 216.5t328 84.5q170 0 322 -50v-160q-174 62 -328 62q-112 0 -175.5 -39.5t-63.5 -97.5q0 -57 55 -92q55 -34 177 -78 l120 -44q164 -60 231 -130q66 -71 66 -176q0 -138 -106 -226.5t-338 -88.5q-204 0 -418 85z" />
<glyph unicode="t" d="M91 826v147h265v427h177v-427h472v-147h-472v-425q0 -128 30.5 -181t81 -77.5t120.5 -24.5q128 0 270 81v-156q-125 -53 -181 -62.5t-108 -9.5q-111 0 -203.5 42.5t-139.5 126t-47 258.5v428h-265z" />
<glyph unicode="u" d="M136 468v593h177v-615q0 -152 14.5 -201t54 -80.5t84.5 -31.5q94 0 200.5 88t177.5 222v618h176v-1061h-176v233q-86 -131 -190.5 -196.5t-208.5 -65.5q-93 0 -170.5 49.5t-108 131t-30.5 316.5z" />
<glyph unicode="v" d="M31 1061h194l364 -840l371 840h177l-464 -1061h-181z" />
<glyph unicode="w" d="M19 1061h164l101 -646l27 -150l25 150l169 646h159l191 -646l33 -150l22 150l102 646h136l-172 -1061h-166l-203 683l-32 150h-5l-29 -149l-177 -684h-172z" />
<glyph unicode="x" d="M53 0l417 556l-389 505h226l276 -356l269 356h201l-369 -488l438 -573h-227l-323 423l-315 -423h-204z" />
<glyph unicode="y" d="M30 -273q74 -22 140 -22q86 0 152.5 33t121.5 117.5t78 146.5l16 41l-490 1018h194l391 -796l327 796h177l-411 -986q-130 -313 -247.5 -415.5t-303.5 -102.5q-81 0 -145 15v155z" />
<glyph unicode="z" d="M126 0v162l651 752h-635v147h869v-147l-656 -752h678v-162h-907z" />
<glyph unicode="{" d="M200 531v147h85q148 0 208.5 62t60.5 154q0 34 -7 66l-11 50l-16 82l-17 76q-15 66 -15 122q0 105 75 189t336 84h149v-148h-147q-140 0 -185.5 -40.5t-45.5 -99.5q0 -42 19 -130l23 -109q20 -87 20 -141q0 -61 -20.5 -108t-62 -91.5t-129.5 -91.5q88 -46 129.5 -91 t62 -92t20.5 -107q0 -55 -20 -142l-23 -108q-19 -89 -19 -131q0 -58 45 -98.5t186 -40.5h147v-147h-149q-261 0 -336 83.5t-75 188.5q0 56 15 121l17 76l16 83l11 50q7 35 7 68q0 89 -59.5 151.5t-209.5 62.5h-85z" />
<glyph unicode="|" d="M506 -45v1563h155v-1563h-155z" />
<glyph unicode="}" d="M120 -206h147q141 0 186 40.5t45 99.5q0 41 -19 130l-24 108q-18 87 -18 142q0 60 20 107t61.5 92t129.5 91q-88 47 -129.5 91.5t-61.5 91.5t-20 108q0 54 18 141l24 109q19 88 19 131q0 58 -45 98.5t-186 40.5h-147v148h149q260 0 335.5 -84t75.5 -189q0 -57 -15 -122 l-17 -76l-16 -82l-12 -50q-6 -36 -6 -69q0 -87 59 -150t210 -63h84v-147h-84q-149 0 -209 -62t-60 -155q0 -33 6 -65l12 -50l16 -83l17 -76q15 -66 15 -122q0 -105 -75.5 -188t-335.5 -83h-149v147z" />
<glyph unicode="~" d="M53 383v17q0 124 73.5 216t198.5 92q31 0 61 -6.5t68 -21t114 -57.5l115 -63q105 -58 172 -58q70 0 104 50.5t34 110.5v15h121v-15q0 -159 -89.5 -234.5t-190.5 -75.5q-94 0 -249 89l-97 56q-110 62 -177 62q-38 0 -71 -19.5t-53 -63.5t-20 -77v-17h-114z" />
<glyph unicode="&#xa0;" />
<glyph unicode="&#xa1;" d="M447 955q0 54 41.5 95t95.5 41q53 0 94.5 -41t41.5 -95q0 -55 -41.5 -96t-94.5 -41q-54 0 -95.5 41t-41.5 96zM473 -428l45 1054h147l44 -1054h-236z" />
<glyph unicode="&#xa2;" d="M112 728q0 148 56 263t155.5 191t253.5 103v337h147v-337q158 -18 273 -53v-170q-35 20 -76.5 35t-88 27.5t-108.5 18.5v-823q76 9 117 20.5t123 49.5q12 5 33 15v-171q-142 -47 -273 -53v-328h-147v328q-142 18 -243 92t-161.5 190.5t-60.5 264.5zM304 727 q0 -120 57 -237.5t216 -161.5v807q-147 -45 -210 -156.5t-63 -251.5z" />
<glyph unicode="&#xa3;" d="M134 0v162q88 20 129.5 59.5t63 115t21.5 192.5v201h-214v147h214v65q0 253 48.5 361.5t137.5 161.5t214 53q117 0 249 -55v-171q-151 79 -270 79q-54 0 -104 -35.5t-74.5 -109t-24.5 -274.5v-75h310v-147h-310v-112q0 -177 -20.5 -269.5t-121.5 -186.5h673v-162h-921z " />
<glyph unicode="&#xa4;" d="M67 253l175 200q-69 97 -84.5 157.5t-15.5 124.5t15.5 123.5t84.5 156.5l-175 201l110 96l175 -200q84 51 137 59t94 8q42 0 95 -8t136 -59l176 200l109 -96l-175 -201q70 -97 85 -156.5t15 -123.5t-15 -124.5t-85 -157.5l175 -200l-109 -91l-176 196q-86 -45 -135 -54.5 t-96 -9.5q-46 0 -95 9.5t-136 54.5l-175 -196zM291 732q0 -126 89.5 -208t202.5 -82t203 82t90 208q0 81 -39.5 152t-110.5 109.5t-143 38.5q-71 0 -142 -38.5t-110.5 -109.5t-39.5 -152z" />
<glyph unicode="&#xa5;" d="M49 1474h195l349 -610l349 610h176l-445 -789h302v-132h-302v-184h302v-133h-302v-236h-177v236h-310v133h310v184h-310v132h301z" />
<glyph unicode="&#xa6;" d="M506 -45v694h155v-694h-155zM506 826v692h155v-692h-155z" />
<glyph unicode="&#xa7;" d="M142 -95q96 -52 207 -81.5t200 -29.5q142 0 217.5 58t75.5 124q0 55 -37 97q-38 41 -163 111l-139 79q-187 105 -263.5 199t-76.5 197q0 155 138 281q-61 46 -91.5 104.5t-30.5 129.5q0 92 52.5 171t148.5 126t245 47q141 0 320 -54v-169q-58 30 -156 53t-172 23 q-130 0 -188.5 -51.5t-58.5 -113.5q0 -34 16.5 -63.5t49.5 -55.5q66 -52 120 -85l60 -33l141 -84q183 -108 238 -190q53 -82 53 -181q0 -156 -137 -282q87 -72 105 -129t18 -101q0 -89 -63.5 -178t-170 -133t-258.5 -44q-209 0 -400 67v191zM340 699q0 -77 52.5 -136 t240.5 -168l158 -92q95 76 95 177q0 68 -61 133t-141 111l-89 50l-175 100q-55 -63 -67.5 -101.5t-12.5 -73.5z" />
<glyph unicode="&#xa8;" d="M259 1341q0 50 35.5 84t82.5 34q48 0 83 -34t35 -84q0 -49 -34.5 -83t-83.5 -34q-48 0 -83 34t-35 83zM672 1341q0 50 35.5 84t82.5 34q48 0 83 -34t35 -84q0 -49 -35 -83t-83 -34t-83 34t-35 83z" />
<glyph unicode="&#xa9;" d="M2 737q0 221 70.5 397.5t195.5 280t316 103.5q185 0 308 -97t199 -276.5t76 -407.5q0 -229 -76.5 -409.5t-199 -276.5t-307.5 -96q-184 0 -306.5 96t-199 276.5t-76.5 409.5zM120 737q0 -185 66.5 -350.5t172 -239t225.5 -73.5q122 0 228.5 76.5t171.5 240t65 346.5 t-65.5 347t-172 240t-227.5 76q-123 0 -231 -79t-170.5 -242t-62.5 -342zM216 736q0 139 54.5 256t143.5 181.5t218 64.5q97 0 217 -31v-151q-36 12 -78.5 19.5t-75.5 12t-55 4.5q-120 0 -191 -98t-71 -260q0 -177 83 -271t204 -94q78 0 184 42v-144q-85 -31 -203 -31 q-124 0 -220.5 67t-153 180.5t-56.5 252.5z" />
<glyph unicode="&#xaa;" d="M200 1130q0 113 56 199.5t149.5 137.5t234.5 51q43 0 123 -5l34 -3h133v-452q0 -46 5 -89.5t40 -105.5h-148q-19 55 -29 144q-55 -72 -147 -116t-175 -44q-106 0 -191 70t-85 213zM348 1141q0 -85 47.5 -126.5t111.5 -41.5q69 0 151.5 49.5t138.5 125.5l-1 242 q-74 10 -140 10q-129 0 -218.5 -68t-89.5 -191z" />
<glyph unicode="&#xab;" d="M145 457v147l365 398l107 -103l-296 -368l296 -379l-107 -93zM595 457v147l365 398l107 -103l-297 -368l297 -379l-107 -93z" />
<glyph unicode="&#xac;" d="M67 442v148h1032v-443h-147v295h-885z" />
<glyph unicode="&#xad;" d="M216 523v148h737v-148h-737z" />
<glyph unicode="&#xae;" d="M2 737q0 221 70.5 397.5t195.5 280t316 103.5q185 0 308 -97t199 -276.5t76 -407.5q0 -229 -76.5 -409.5t-199 -276.5t-307.5 -96q-184 0 -306.5 96t-199 276.5t-76.5 409.5zM120 737q0 -185 66.5 -350.5t172 -239t225.5 -73.5q122 0 228.5 76.5t171.5 240t65 346.5 t-65.5 347t-172 240t-227.5 76q-123 0 -231 -79t-170.5 -242t-62.5 -342zM337 322v868h209q167 0 226.5 -61t59.5 -139q0 -71 -40 -144t-125 -121l224 -403h-158l-186 360h-78v-360h-132zM469 788h111q60 34 90 78t30 99q0 56 -39.5 88.5t-148.5 32.5h-43v-298z" />
<glyph unicode="&#xaf;" d="M318 1224v117h531v-117h-531z" />
<glyph unicode="&#x2c9;" d="M318 1224v117h531v-117h-531z" />
<glyph unicode="&#xb0;" d="M326 1260q0 107 76.5 182.5t181.5 75.5q106 0 182 -75.5t76 -182.5q0 -105 -75 -181.5t-183 -76.5t-183 76.5t-75 181.5zM414 1260q0 -67 49 -118t121 -51t120.5 51t48.5 118q0 69 -49.5 119.5t-119.5 50.5t-120 -50.5t-50 -119.5z" />
<glyph unicode="&#xb1;" d="M67 0v147h1032v-147h-1032zM67 737v147h442v442h148v-442h442v-147h-442v-443h-148v443h-442z" />
<glyph unicode="&#xb2;" d="M226 612v110q0 56 46.5 120t173.5 159l80 59q138 104 196 155q57 50 57 91q0 48 -66 71t-133 23q-50 0 -115 -6.5t-209 -47.5v119q168 53 347 53q169 0 246 -55.5t77 -140.5q0 -62 -46 -124q-47 -63 -180 -159l-86 -61l-72 -52q-69 -50 -112.5 -94t-50.5 -95h561v-125 h-714z" />
<glyph unicode="&#xb3;" horiz-adv-x="1474" d="M380 628v136q170 -56 304 -56q124 0 201 48t77 115q0 81 -94.5 121t-283.5 40h-79v118h109q146 0 217.5 45.5t71.5 100.5q0 45 -58 74.5t-169 29.5q-125 0 -274 -41v126q150 33 271 33q201 0 293 -64q38 -25 61.5 -65.5t23.5 -80.5q0 -50 -36.5 -105t-124.5 -93 q106 -28 163 -87.5t57 -142.5q0 -130 -122.5 -210t-322.5 -80q-152 0 -285 38z" />
<glyph unicode="&#xb4;" d="M304 1224l281 309h205l-324 -309h-162z" />
<glyph unicode="&#xb5;" d="M116 -353v1414h177v-616q0 -180 56 -250.5t139 -70.5q84 0 162.5 62.5t195.5 248.5v626h176v-1061h-176v230q-73 -135 -167 -197t-186 -62q-32 0 -67.5 7.5t-62.5 19.5t-70 47v-398h-177z" />
<glyph unicode="&#xb6;" d="M83 1068q0 106 53 204t148.5 150t327.5 52h510v-148h-155v-1679h-147v1679h-147v-1679h-149v1002q-223 23 -332 143t-109 276z" />
<glyph unicode="&#xb7;" d="M428 516q0 59 44.5 107t110.5 48q67 0 111 -48t44 -107t-44 -107t-111 -48q-66 0 -110.5 48t-44.5 107z" />
<glyph unicode="&#x2219;" d="M428 516q0 59 44.5 107t110.5 48q67 0 111 -48t44 -107t-44 -107t-111 -48q-66 0 -110.5 48t-44.5 107z" />
<glyph unicode="&#xb8;" d="M422 -302q55 -30 113 -30q33 0 59.5 20t26.5 42q0 65 -176 83l103 187h103l-70 -124q102 -20 133.5 -62.5t31.5 -88.5q0 -52 -42 -95t-131 -43q-79 0 -151 26v85z" />
<glyph unicode="&#xb9;" d="M256 612v118h294v629q-138 -77 -294 -115v119q172 52 298 133h129v-766h287v-118h-714z" />
<glyph unicode="&#xba;" d="M171 1179q0 137 102.5 238t309.5 101q208 0 311 -101t103 -238q0 -136 -103 -237.5t-311 -101.5q-207 0 -309.5 101.5t-102.5 237.5zM318 1179q0 -107 74 -164t191 -57q118 0 192 57t74 164t-74 164t-192 57q-117 0 -191 -57t-74 -164z" />
<glyph unicode="&#xbb;" d="M101 162l296 369l-296 378l107 93l364 -398v-147l-364 -398zM550 162l296 369l-296 378l107 93l365 -398v-147l-365 -398z" />
<glyph unicode="&#xbc;" d="M2 -45l1004 1563h161l-1009 -1563h-156zM2 737v118h221v473l-221 -147v147l221 146h155v-619h110v-118h-486zM488 147v118l391 465h147v-465h141v-118h-141v-147h-147v147h-391zM646 265h233v278z" />
<glyph unicode="&#xbd;" d="M2 -45l1005 1563h160l-1013 -1563h-152zM2 737v118h221v473l-221 -147v147l221 146h155v-619h110v-118h-486zM598 0v118q0 28 47 88.5t161 141.5l57 40q81 58 97 82q15 24 15 55q0 49 -39 68t-87 19q-78 0 -184 -57v123q127 52 218 52q113 0 176 -56t63 -141 q0 -69 -50 -125q-51 -56 -137 -112l-43 -28q-52 -34 -86 -67q-18 -16 -29.5 -31.5t-23.5 -51.5h369v-118h-524z" />
<glyph unicode="&#xbe;" d="M2 -45l1004 1563h161l-1009 -1563h-156zM76 769v131q136 -45 205 -45q51 0 89 25t38 65q0 44 -42.5 73t-176.5 29h-69v118h77q131 0 160 34.5t29 65.5q0 32 -28 61.5t-93 29.5t-189 -38v116q125 40 229 40q123 0 175.5 -59.5t52.5 -125.5q0 -52 -27.5 -95.5t-83.5 -77.5 q66 -26 99.5 -66.5t33.5 -95.5q0 -80 -71.5 -148.5t-211.5 -68.5q-98 0 -196 32zM488 147v118l391 465h147v-465h141v-118h-141v-147h-147v147h-391zM646 265h233v278z" />
<glyph unicode="&#xbf;" d="M167 -160q0 137 144 285l63 65l73 76l69 69q37 43 65 96.5t28 150.5v44h178v-33q0 -78 -13.5 -131t-51.5 -109.5t-113 -135.5l-59 -64q-16 -17 -49 -58l-63 -79q-79 -99 -79 -171q0 -66 57 -117.5t184 -51.5q83 0 169.5 22t201.5 86v-170q-177 -86 -369 -86 q-212 0 -323.5 87.5t-111.5 224.5zM553 947q0 56 40 96t96 40q55 0 96 -39.5t41 -96.5t-41 -97t-96 -40q-56 0 -96 40.5t-40 96.5z" />
<glyph unicode="&#xc0;" d="M31 0l454 1474h195l457 -1474h-202l-101 324h-519l-99 -324h-185zM361 471h430l-177 560l-42 148l-37 -148zM338 1945h205l281 -309h-161z" />
<glyph unicode="&#xc1;" d="M31 0l454 1474h195l457 -1474h-202l-101 324h-519l-99 -324h-185zM361 471h430l-177 560l-42 148l-37 -148zM338 1636l281 309h205l-324 -309h-162z" />
<glyph unicode="&#xc2;" d="M31 0l454 1474h195l457 -1474h-202l-101 324h-519l-99 -324h-185zM361 471h430l-177 560l-42 148l-37 -148zM304 1636l221 309h118l221 -309h-148l-132 159l-133 -159h-147z" />
<glyph unicode="&#xc3;" d="M31 0l454 1474h195l457 -1474h-202l-101 324h-519l-99 -324h-185zM361 471h430l-177 560l-42 148l-37 -148zM284 1636q0 125 48.5 184t122.5 59q59 0 120 -38l40 -24q79 -49 110 -49q57 0 57 111h121q-6 -97 -26 -141.5t-61 -73.5t-91 -29q-61 0 -134 46l-41 27l-23 16 q-33 22 -62 22q-21 0 -42 -22t-21 -88h-118z" />
<glyph unicode="&#xc4;" d="M31 0l454 1474h195l457 -1474h-202l-101 324h-519l-99 -324h-185zM361 471h430l-177 560l-42 148l-37 -148zM259 1753q0 50 35.5 84t82.5 34q48 0 83 -34t35 -84q0 -49 -34.5 -83t-83.5 -34q-48 0 -83 34t-35 83zM672 1753q0 50 35.5 84t82.5 34q48 0 83 -34t35 -84 q0 -49 -35 -83t-83 -34t-83 34t-35 83z" />
<glyph unicode="&#xc5;" d="M31 0l454 1474q-39 30 -59 66.5t-20 81.5q0 71 51.5 123.5t124.5 52.5q74 0 125.5 -52t51.5 -124q0 -44 -19.5 -81t-59.5 -67l457 -1474h-202l-101 324h-519l-99 -324h-185zM361 471h430l-177 560l-42 148l-37 -148zM494 1622q0 -36 26 -62.5t62 -26.5t62.5 26.5 t26.5 62.5t-26.5 62t-62.5 26t-62 -26.5t-26 -61.5z" />
<glyph unicode="&#xc6;" d="M2 0l604 1474h516v-148h-339v-508h325v-147h-325v-509h339v-162h-516v353h-298l-145 -353h-161zM362 486h244v591z" />
<glyph unicode="&#xc7;" d="M112 716q0 383 178 593t447 210q131 0 297 -62v-175q-153 89 -304 89q-114 0 -208.5 -78t-152.5 -228.5t-58 -327.5q0 -179 59.5 -331t153 -227.5t206.5 -75.5q150 0 304 88v-174q-122 -44 -183 -54t-137 -10l-42 -77q101 -20 132.5 -62.5t31.5 -88.5q0 -52 -42 -95 t-131 -43q-79 0 -151 26v85q55 -30 113 -30q33 0 60 20t27 42q0 65 -177 83l83 152q-184 46 -293.5 156t-161 255.5t-51.5 339.5z" />
<glyph unicode="&#xc8;" d="M193 0v1474h781v-148h-589v-500h530v-148h-530v-516h604v-162h-796zM349 1945h205l281 -309h-161z" />
<glyph unicode="&#xc9;" d="M193 0v1474h781v-148h-589v-500h530v-148h-530v-516h604v-162h-796zM349 1636l281 309h205l-324 -309h-162z" />
<glyph unicode="&#xca;" d="M193 0v1474h781v-148h-589v-500h530v-148h-530v-516h604v-162h-796zM304 1636l221 309h118l221 -309h-148l-132 159l-133 -159h-147z" />
<glyph unicode="&#xcb;" d="M193 0v1474h781v-148h-589v-500h530v-148h-530v-516h604v-162h-796zM267 1753q0 50 35.5 84t82.5 34q48 0 83 -34t35 -84q0 -49 -34.5 -83t-83.5 -34q-48 0 -83 34t-35 83zM680 1753q0 50 35.5 84t82.5 34q48 0 83 -34t35 -84q0 -49 -35 -83t-83 -34t-83 34t-35 83z" />
<glyph unicode="&#xcc;" d="M163 0v147h324v1179h-324v148h840v-148h-324v-1179h324v-147h-840zM341 1945h205l281 -309h-161z" />
<glyph unicode="&#xcd;" d="M163 0v147h324v1179h-324v148h840v-148h-324v-1179h324v-147h-840zM341 1636l281 309h205l-324 -309h-162z" />
<glyph unicode="&#xce;" d="M163 0v147h324v1179h-324v148h840v-148h-324v-1179h324v-147h-840zM304 1636l221 309h118l221 -309h-148l-132 159l-133 -159h-147z" />
<glyph unicode="&#xcf;" d="M163 0v147h324v1179h-324v148h840v-148h-324v-1179h324v-147h-840zM259 1753q0 50 35.5 84t82.5 34q48 0 83 -34t35 -84q0 -49 -34.5 -83t-83.5 -34q-48 0 -83 34t-35 83zM672 1753q0 50 35.5 84t82.5 34q48 0 83 -34t35 -84q0 -49 -35 -83t-83 -34t-83 34t-35 83z" />
<glyph unicode="&#xd0;" d="M2 678v148h147v648h350q259 0 362.5 -73t167 -254t63.5 -414q0 -220 -63.5 -393t-167 -256.5t-322.5 -83.5h-390v678h-147zM341 162h128q208 0 281 60.5t112.5 192.5t39.5 349q0 212 -39.5 332t-108.5 175t-270 55h-143v-500h236v-148h-236v-516z" />
<glyph unicode="&#xd1;" d="M120 0v1474h173l521 -981l57 -146h5l-5 146v981h177v-1474h-177l-507 965l-71 155l3 -153v-967h-176zM284 1636q0 125 48.5 184t122.5 59q59 0 120 -38l40 -24q79 -49 110 -49q57 0 57 111h121q-6 -97 -26 -141.5t-61 -73.5t-91 -29q-61 0 -134 46l-41 27l-23 16 q-33 22 -62 22q-21 0 -42 -22t-21 -88h-118z" />
<glyph unicode="&#xd2;" d="M67 737q0 358 132.5 569.5t383.5 211.5q252 0 384 -211.5t132 -569.5q0 -359 -132 -570.5t-384 -211.5q-251 0 -383.5 211.5t-132.5 570.5zM259 737q0 -319 93 -476t231 -157q139 0 231.5 157t92.5 476t-92.5 476.5t-231.5 157.5q-138 0 -231 -157.5t-93 -476.5z M341 1945h205l281 -309h-161z" />
<glyph unicode="&#xd3;" d="M67 737q0 358 132.5 569.5t383.5 211.5q252 0 384 -211.5t132 -569.5q0 -359 -132 -570.5t-384 -211.5q-251 0 -383.5 211.5t-132.5 570.5zM259 737q0 -319 93 -476t231 -157q139 0 231.5 157t92.5 476t-92.5 476.5t-231.5 157.5q-138 0 -231 -157.5t-93 -476.5z M341 1636l281 309h205l-324 -309h-162z" />
<glyph unicode="&#xd4;" d="M67 737q0 358 132.5 569.5t383.5 211.5q252 0 384 -211.5t132 -569.5q0 -359 -132 -570.5t-384 -211.5q-251 0 -383.5 211.5t-132.5 570.5zM259 737q0 -319 93 -476t231 -157q139 0 231.5 157t92.5 476t-92.5 476.5t-231.5 157.5q-138 0 -231 -157.5t-93 -476.5z M304 1636l221 309h118l221 -309h-148l-132 159l-133 -159h-147z" />
<glyph unicode="&#xd5;" d="M67 737q0 358 132.5 569.5t383.5 211.5q252 0 384 -211.5t132 -569.5q0 -359 -132 -570.5t-384 -211.5q-251 0 -383.5 211.5t-132.5 570.5zM259 737q0 -319 93 -476t231 -157q139 0 231.5 157t92.5 476t-92.5 476.5t-231.5 157.5q-138 0 -231 -157.5t-93 -476.5z M275 1636q0 125 48.5 184t122.5 59q59 0 120 -38l40 -24q79 -49 110 -49q57 0 57 111h121q-6 -97 -26 -141.5t-61 -73.5t-91 -29q-61 0 -134 46l-41 27l-23 16q-33 22 -62 22q-21 0 -42 -22t-21 -88h-118z" />
<glyph unicode="&#xd6;" d="M67 737q0 358 132.5 569.5t383.5 211.5q252 0 384 -211.5t132 -569.5q0 -359 -132 -570.5t-384 -211.5q-251 0 -383.5 211.5t-132.5 570.5zM259 737q0 -319 93 -476t231 -157q139 0 231.5 157t92.5 476t-92.5 476.5t-231.5 157.5q-138 0 -231 -157.5t-93 -476.5z M259 1753q0 50 35.5 84t82.5 34q48 0 83 -34t35 -84q0 -49 -34.5 -83t-83.5 -34q-48 0 -83 34t-35 83zM672 1753q0 50 35.5 84t82.5 34q48 0 83 -34t35 -84q0 -49 -35 -83t-83 -34t-83 34t-35 83z" />
<glyph unicode="&#xd7;" d="M67 106l414 408l-414 416l108 102l409 -409l408 409l107 -102l-410 -416l410 -408l-107 -106l-408 414l-409 -414z" />
<glyph unicode="&#xd8;" d="M67 -104l141 263q-60 95 -85.5 180t-40.5 188.5t-15 218.5q0 378 140.5 575t371.5 197q51 0 105.5 -11t97.5 -29t102 -64l89 163h126l-135 -259q58 -98 83 -176t38.5 -191.5t13.5 -223.5q0 -237 -63 -414.5t-171 -267.5t-291 -90q-78 0 -136.5 18t-146.5 93l-92 -170 h-132zM259 750q0 -46 3 -139.5t11 -142t32 -126.5l499 921q-59 69 -113.5 88.5t-107.5 19.5q-146 0 -235 -166t-89 -455zM370 214q51 -63 103.5 -86.5t105.5 -23.5q165 0 246.5 175t81.5 459q0 50 -2.5 131.5t-10 133t-29.5 132.5z" />
<glyph unicode="&#xd9;" d="M120 531v943h192v-968q0 -191 31.5 -260.5t97.5 -106t147 -36.5q86 0 153 39t98.5 123.5t31.5 315.5v893h177v-962q0 -206 -61.5 -322.5t-160 -175.5t-248.5 -59q-139 0 -244.5 51.5t-159.5 154t-54 370.5zM341 1945h205l281 -309h-161z" />
<glyph unicode="&#xda;" d="M120 531v943h192v-968q0 -191 31.5 -260.5t97.5 -106t147 -36.5q86 0 153 39t98.5 123.5t31.5 315.5v893h177v-962q0 -206 -61.5 -322.5t-160 -175.5t-248.5 -59q-139 0 -244.5 51.5t-159.5 154t-54 370.5zM341 1636l281 309h205l-324 -309h-162z" />
<glyph unicode="&#xdb;" d="M120 531v943h192v-968q0 -191 31.5 -260.5t97.5 -106t147 -36.5q86 0 153 39t98.5 123.5t31.5 315.5v893h177v-962q0 -206 -61.5 -322.5t-160 -175.5t-248.5 -59q-139 0 -244.5 51.5t-159.5 154t-54 370.5zM304 1636l221 309h118l221 -309h-148l-132 159l-133 -159h-147z " />
<glyph unicode="&#xdc;" d="M120 531v943h192v-968q0 -191 31.5 -260.5t97.5 -106t147 -36.5q86 0 153 39t98.5 123.5t31.5 315.5v893h177v-962q0 -206 -61.5 -322.5t-160 -175.5t-248.5 -59q-139 0 -244.5 51.5t-159.5 154t-54 370.5zM259 1753q0 50 35.5 84t82.5 34q48 0 83 -34t35 -84 q0 -49 -34.5 -83t-83.5 -34q-48 0 -83 34t-35 83zM672 1753q0 50 35.5 84t82.5 34q48 0 83 -34t35 -84q0 -49 -35 -83t-83 -34t-83 34t-35 83z" />
<glyph unicode="&#xdd;" d="M49 1474h218l328 -585l327 585h196l-438 -792v-682h-192v682zM341 1636l281 309h205l-324 -309h-162z" />
<glyph unicode="&#xde;" d="M167 0v1474h192v-250h175q226 0 329.5 -51t158.5 -149t55 -217q0 -143 -74 -265.5t-206.5 -188t-359.5 -65.5h-78v-288h-192zM359 435h83q177 0 263.5 45.5t133 132.5t46.5 187q0 127 -83 201.5t-328 74.5h-115v-641z" />
<glyph unicode="&#xdf;" d="M124 0v1066q0 188 54.5 288t152.5 154.5t237 54.5q182 0 263 -85t81 -178q0 -59 -33 -115.5t-131 -141.5l-65 -55q-19 -16 -57 -52.5t-38 -74.5q0 -27 11.5 -46t67.5 -60l61 -44l119 -83q101 -68 169 -149q66 -81 66 -190q0 -139 -107.5 -228.5t-274.5 -89.5 q-36 0 -86.5 3t-78.5 7t-80 19v176q57 -25 97 -35t80 -16.5t66 -6.5q48 0 100 17t79 55.5t27 78.5q0 59 -45 116q-47 57 -155 129l-114 76q-87 59 -136.5 115.5t-49.5 126.5q0 52 28 102.5t124 139.5l56 52q45 42 76.5 83t31.5 86q0 62 -59 91t-116 29q-65 0 -120.5 -32 t-90 -97t-34.5 -220v-1066h-176z" />
<glyph unicode="&#xe0;" d="M97 434q0 184 70.5 329t188 229t291.5 84q50 0 152 -10q15 -2 46 -5h177v-749q0 -192 40 -312h-184q-21 87 -33 238q-81 -133 -194.5 -200t-208.5 -67q-133 0 -239 114.5t-106 348.5zM289 458q0 -158 59.5 -238t135.5 -80q82 0 182 83.5t179 224.5v455q-95 25 -175 25 q-164 0 -272.5 -126.5t-108.5 -343.5zM367 1533h205l281 -309h-161z" />
<glyph unicode="&#xe1;" d="M97 434q0 184 70.5 329t188 229t291.5 84q50 0 152 -10q15 -2 46 -5h177v-749q0 -192 40 -312h-184q-21 87 -33 238q-81 -133 -194.5 -200t-208.5 -67q-133 0 -239 114.5t-106 348.5zM289 458q0 -158 59.5 -238t135.5 -80q82 0 182 83.5t179 224.5v455q-95 25 -175 25 q-164 0 -272.5 -126.5t-108.5 -343.5zM455 1224l281 309h205l-324 -309h-162z" />
<glyph unicode="&#xe2;" d="M97 434q0 184 70.5 329t188 229t291.5 84q50 0 152 -10q15 -2 46 -5h177v-749q0 -192 40 -312h-184q-21 87 -33 238q-81 -133 -194.5 -200t-208.5 -67q-133 0 -239 114.5t-106 348.5zM289 458q0 -158 59.5 -238t135.5 -80q82 0 182 83.5t179 224.5v455q-95 25 -175 25 q-164 0 -272.5 -126.5t-108.5 -343.5zM389 1224l221 309h118l221 -309h-148l-132 159l-133 -159h-147z" />
<glyph unicode="&#xe3;" d="M97 434q0 184 70.5 329t188 229t291.5 84q50 0 152 -10q15 -2 46 -5h177v-749q0 -192 40 -312h-184q-21 87 -33 238q-81 -133 -194.5 -200t-208.5 -67q-133 0 -239 114.5t-106 348.5zM289 458q0 -158 59.5 -238t135.5 -80q82 0 182 83.5t179 224.5v455q-95 25 -175 25 q-164 0 -272.5 -126.5t-108.5 -343.5zM316 1224q0 125 48.5 184t122.5 59q59 0 120 -38l40 -24q79 -49 110 -49q57 0 57 111h121q-6 -97 -26 -141.5t-61 -73.5t-91 -29q-61 0 -134 46l-41 27l-23 16q-33 22 -62 22q-21 0 -42 -22t-21 -88h-118z" />
<glyph unicode="&#xe4;" d="M97 434q0 184 70.5 329t188 229t291.5 84q50 0 152 -10q15 -2 46 -5h177v-749q0 -192 40 -312h-184q-21 87 -33 238q-81 -133 -194.5 -200t-208.5 -67q-133 0 -239 114.5t-106 348.5zM289 458q0 -158 59.5 -238t135.5 -80q82 0 182 83.5t179 224.5v455q-95 25 -175 25 q-164 0 -272.5 -126.5t-108.5 -343.5zM314 1341q0 50 35.5 84t82.5 34q48 0 83 -34t35 -84q0 -49 -34.5 -83t-83.5 -34q-48 0 -83 34t-35 83zM727 1341q0 50 35.5 84t82.5 34q48 0 83 -34t35 -84q0 -49 -35 -83t-83 -34t-83 34t-35 83z" />
<glyph unicode="&#xe5;" d="M97 434q0 184 70.5 329t188 229t291.5 84q50 0 152 -10q15 -2 46 -5h177v-749q0 -192 40 -312h-184q-21 87 -33 238q-81 -133 -194.5 -200t-208.5 -67q-133 0 -239 114.5t-106 348.5zM289 458q0 -158 59.5 -238t135.5 -80q82 0 182 83.5t179 224.5v455q-95 25 -175 25 q-164 0 -272.5 -126.5t-108.5 -343.5zM448 1400q0 72 51.5 124.5t124.5 52.5q74 0 125.5 -52.5t51.5 -124.5q0 -70 -51.5 -123t-125.5 -53t-125 53t-51 123zM536 1400q0 -36 26 -62t62 -26q37 0 63 26t26 62t-26 62.5t-63 26.5q-36 0 -62 -26.5t-26 -62.5z" />
<glyph unicode="&#xe6;" d="M61 459q0 190 52.5 332t140.5 221t189 79q33 0 70.5 -7.5t67.5 -18.5t75 -42q70 51 108 59.5t67 8.5q121 0 199 -108t78 -427v-48h-384v-79q0 -140 21.5 -197.5t61 -85.5t89.5 -28q96 0 212 75v-162q-134 -60 -242 -60q-70 0 -129 24t-102 72.5t-73 147.5 q-49 -124 -113.5 -184t-125.5 -60q-106 0 -184 136.5t-78 351.5zM238 440q0 -112 31 -193t80 -78q99 7 198 277v465q-23 16 -44.5 24t-42.5 8q-111 0 -166.5 -156.5t-55.5 -346.5zM724 634h206v30q0 167 -25.5 223t-75.5 56q-52 0 -78.5 -69.5t-26.5 -209.5v-30z" />
<glyph unicode="&#xe7;" d="M156 520q0 258 160.5 414.5t376.5 156.5q164 0 347 -62v-170q-185 84 -331 84q-97 0 -182.5 -48t-132 -149.5t-46.5 -208.5q0 -144 89.5 -274t281.5 -130q58 0 114 8t207 59v-170q-148 -53 -321 -62l-52 -92q103 -20 134 -62.5t31 -88.5q0 -52 -42 -95t-131 -43 q-79 0 -151 26v85q55 -30 112 -30q35 0 61 20t26 42q0 65 -176 83l88 160q-156 27 -258 107t-153.5 186.5t-51.5 253.5z" />
<glyph unicode="&#xe8;" d="M124 528q0 146 64.5 279.5t180 208.5t258.5 75q189 0 303.5 -135t114.5 -416v-38h-731q0 -111 46 -202t121 -136.5t171 -45.5q171 0 378 114v-162q-212 -100 -401 -100q-144 0 -257 71t-180.5 203.5t-67.5 283.5zM324 634h529v25q0 130 -63.5 207t-170.5 77t-185.5 -78 t-109.5 -231zM378 1533h205l281 -309h-161z" />
<glyph unicode="&#xe9;" d="M124 528q0 146 64.5 279.5t180 208.5t258.5 75q189 0 303.5 -135t114.5 -416v-38h-731q0 -111 46 -202t121 -136.5t171 -45.5q171 0 378 114v-162q-212 -100 -401 -100q-144 0 -257 71t-180.5 203.5t-67.5 283.5zM324 634h529v25q0 130 -63.5 207t-170.5 77t-185.5 -78 t-109.5 -231zM422 1224l281 309h205l-324 -309h-162z" />
<glyph unicode="&#xea;" d="M124 528q0 146 64.5 279.5t180 208.5t258.5 75q189 0 303.5 -135t114.5 -416v-38h-731q0 -111 46 -202t121 -136.5t171 -45.5q171 0 378 114v-162q-212 -100 -401 -100q-144 0 -257 71t-180.5 203.5t-67.5 283.5zM324 634h529v25q0 130 -63.5 207t-170.5 77t-185.5 -78 t-109.5 -231zM341 1224l221 309h118l221 -309h-148l-132 159l-133 -159h-147z" />
<glyph unicode="&#xeb;" d="M124 528q0 146 64.5 279.5t180 208.5t258.5 75q189 0 303.5 -135t114.5 -416v-38h-731q0 -111 46 -202t121 -136.5t171 -45.5q171 0 378 114v-162q-212 -100 -401 -100q-144 0 -257 71t-180.5 203.5t-67.5 283.5zM324 634h529v25q0 130 -63.5 207t-170.5 77t-185.5 -78 t-109.5 -231zM310 1341q0 50 35.5 84t82.5 34q48 0 83 -34t35 -84q0 -49 -34.5 -83t-83.5 -34q-48 0 -83 34t-35 83zM723 1341q0 50 35.5 84t82.5 34q48 0 83 -34t35 -84q0 -49 -35 -83t-83 -34t-83 34t-35 83z" />
<glyph unicode="&#xec;" d="M149 914v147h471v-914h296v-147h-472v914h-295zM289 1533h205l281 -309h-161z" />
<glyph unicode="&#xed;" d="M149 914v147h471v-914h296v-147h-472v914h-295zM289 1224l281 309h205l-324 -309h-162z" />
<glyph unicode="&#xee;" d="M149 914v147h471v-914h296v-147h-472v914h-295zM253 1224l221 309h118l221 -309h-148l-132 159l-133 -159h-147z" />
<glyph unicode="&#xef;" d="M149 914v147h471v-914h296v-147h-472v914h-295zM208 1341q0 50 35.5 84t82.5 34q48 0 83 -34t35 -84q0 -49 -34.5 -83t-83.5 -34q-48 0 -83 34t-35 83zM621 1341q0 50 35.5 84t82.5 34q48 0 83 -34t35 -84q0 -49 -35 -83t-83 -34t-83 34t-35 83z" />
<glyph unicode="&#xf0;" d="M83 509q0 159 62.5 276t178.5 182t243 65q53 0 113 -13t162 -78q-36 93 -92 171.5t-170 164.5l-214 -194l-98 111l172 153q-122 38 -253 38h-24v148h33q113 0 200.5 -10.5t183.5 -50.5l204 185l98 -110l-170 -152q143 -115 218.5 -235.5t115 -274t39.5 -303.5 q0 -279 -131 -445t-373 -166q-225 0 -361.5 150.5t-136.5 387.5zM267 502q0 -169 88.5 -276.5t228.5 -107.5t228.5 107.5t88.5 276.5q0 167 -88.5 274.5t-228.5 107.5t-228.5 -107.5t-88.5 -274.5z" />
<glyph unicode="&#xf1;" d="M149 0v1061h177v-232q76 123 183.5 192.5t214.5 69.5q94 0 171 -50t108 -131t31 -317v-593h-177v615q0 153 -14.5 201.5t-54 80t-86.5 31.5q-93 0 -200 -88.5t-176 -221.5v-618h-177zM290 1224q0 125 48.5 184t122.5 59q59 0 120 -38l40 -24q79 -49 110 -49q57 0 57 111 h121q-6 -97 -26 -141.5t-61 -73.5t-91 -29q-61 0 -134 46l-41 27l-23 16q-33 22 -62 22q-21 0 -42 -22t-21 -88h-118z" />
<glyph unicode="&#xf2;" d="M83 531q0 242 136.5 401t364.5 159q227 0 364 -159t137 -401t-137 -401t-364 -159q-228 0 -364.5 159t-136.5 401zM275 531q0 -193 83.5 -303t225.5 -110t225.5 110t83.5 303q0 192 -83.5 302t-225.5 110t-225.5 -110t-83.5 -302zM341 1533h205l281 -309h-161z" />
<glyph unicode="&#xf3;" d="M83 531q0 242 136.5 401t364.5 159q227 0 364 -159t137 -401t-137 -401t-364 -159q-228 0 -364.5 159t-136.5 401zM275 531q0 -193 83.5 -303t225.5 -110t225.5 110t83.5 303q0 192 -83.5 302t-225.5 110t-225.5 -110t-83.5 -302zM341 1224l281 309h205l-324 -309h-162z " />
<glyph unicode="&#xf4;" d="M83 531q0 242 136.5 401t364.5 159q227 0 364 -159t137 -401t-137 -401t-364 -159q-228 0 -364.5 159t-136.5 401zM275 531q0 -193 83.5 -303t225.5 -110t225.5 110t83.5 303q0 192 -83.5 302t-225.5 110t-225.5 -110t-83.5 -302zM304 1224l221 309h118l221 -309h-148 l-132 159l-133 -159h-147z" />
<glyph unicode="&#xf5;" d="M83 531q0 242 136.5 401t364.5 159q227 0 364 -159t137 -401t-137 -401t-364 -159q-228 0 -364.5 159t-136.5 401zM275 531q0 -193 83.5 -303t225.5 -110t225.5 110t83.5 303q0 192 -83.5 302t-225.5 110t-225.5 -110t-83.5 -302zM275 1224q0 125 48.5 184t122.5 59 q59 0 120 -38l40 -24q79 -49 110 -49q57 0 57 111h121q-6 -97 -26 -141.5t-61 -73.5t-91 -29q-61 0 -134 46l-41 27l-23 16q-33 22 -62 22q-21 0 -42 -22t-21 -88h-118z" />
<glyph unicode="&#xf6;" d="M83 531q0 242 136.5 401t364.5 159q227 0 364 -159t137 -401t-137 -401t-364 -159q-228 0 -364.5 159t-136.5 401zM275 531q0 -193 83.5 -303t225.5 -110t225.5 110t83.5 303q0 192 -83.5 302t-225.5 110t-225.5 -110t-83.5 -302zM259 1341q0 50 35.5 84t82.5 34 q48 0 83 -34t35 -84q0 -49 -34.5 -83t-83.5 -34q-48 0 -83 34t-35 83zM672 1341q0 50 35.5 84t82.5 34q48 0 83 -34t35 -84q0 -49 -35 -83t-83 -34t-83 34t-35 83z" />
<glyph unicode="&#xf7;" d="M67 442v148h1032v-148h-1032zM447 159q0 55 41 95t95 40t95.5 -40t41.5 -95t-41.5 -96t-95.5 -41t-95 41t-41 96zM447 873q0 55 41 96t95 41t95.5 -41t41.5 -96q0 -54 -41.5 -95t-95.5 -41t-95 41t-41 95z" />
<glyph unicode="&#xf8;" d="M83 -88l142 210q-142 179 -142 414q0 231 128 393t371 162q48 0 95.5 -7t85 -19t90.5 -44l89 129h143l-142 -205q142 -183 142 -414q0 -225 -125.5 -392.5t-376.5 -167.5q-60 0 -117.5 9.5t-150.5 61.5l-91 -130h-141zM275 536q0 -143 49 -270l441 630q-85 47 -181 47 q-151 0 -230 -109.5t-79 -297.5zM403 168q91 -50 172 -50q174 0 246 116.5t72 291.5q0 152 -48 277z" />
<glyph unicode="&#xf9;" d="M136 468v593h177v-615q0 -152 14.5 -201t54 -80.5t84.5 -31.5q94 0 200.5 88t177.5 222v618h176v-1061h-176v233q-86 -131 -190.5 -196.5t-208.5 -65.5q-93 0 -170.5 49.5t-108 131t-30.5 316.5zM342 1533h205l281 -309h-161z" />
<glyph unicode="&#xfa;" d="M136 468v593h177v-615q0 -152 14.5 -201t54 -80.5t84.5 -31.5q94 0 200.5 88t177.5 222v618h176v-1061h-176v233q-86 -131 -190.5 -196.5t-208.5 -65.5q-93 0 -170.5 49.5t-108 131t-30.5 316.5zM387 1224l281 309h205l-324 -309h-162z" />
<glyph unicode="&#xfb;" d="M136 468v593h177v-615q0 -152 14.5 -201t54 -80.5t84.5 -31.5q94 0 200.5 88t177.5 222v618h176v-1061h-176v233q-86 -131 -190.5 -196.5t-208.5 -65.5q-93 0 -170.5 49.5t-108 131t-30.5 316.5zM306 1224l221 309h118l221 -309h-148l-132 159l-133 -159h-147z" />
<glyph unicode="&#xfc;" d="M136 468v593h177v-615q0 -152 14.5 -201t54 -80.5t84.5 -31.5q94 0 200.5 88t177.5 222v618h176v-1061h-176v233q-86 -131 -190.5 -196.5t-208.5 -65.5q-93 0 -170.5 49.5t-108 131t-30.5 316.5zM261 1341q0 50 35.5 84t82.5 34q48 0 83 -34t35 -84q0 -49 -34.5 -83 t-83.5 -34q-48 0 -83 34t-35 83zM674 1341q0 50 35.5 84t82.5 34q48 0 83 -34t35 -84q0 -49 -35 -83t-83 -34t-83 34t-35 83z" />
<glyph unicode="&#xfd;" d="M46 -273q74 -22 140 -22q86 0 152.5 33t121.5 117.5t78 146.5l16 41l-490 1018h194l391 -796l327 796h177l-411 -986q-130 -313 -247.5 -415.5t-303.5 -102.5q-81 0 -145 15v155zM430 1224l281 309h205l-324 -309h-162z" />
<glyph unicode="&#xfe;" d="M130 -412v1886h177v-651q82 133 195 200.5t208 67.5q133 0 239 -115t106 -349q0 -275 -157 -464q-74 -87 -166.5 -132.5t-227.5 -45.5q-49 0 -152 10q-15 2 -45 5v-412h-177zM307 158q96 -25 177 -25q160 0 270 126t110 344q0 159 -60 239t-136 80q-83 0 -182 -84 t-179 -225v-455z" />
<glyph unicode="&#xff;" d="M46 -273q74 -22 140 -22q86 0 152.5 33t121.5 117.5t78 146.5l16 41l-490 1018h194l391 -796l327 796h177l-411 -986q-130 -313 -247.5 -415.5t-303.5 -102.5q-81 0 -145 15v155zM305 1341q0 50 35.5 84t82.5 34q48 0 83 -34t35 -84q0 -49 -34.5 -83t-83.5 -34 q-48 0 -83 34t-35 83zM718 1341q0 50 35.5 84t82.5 34q48 0 83 -34t35 -84q0 -49 -35 -83t-83 -34t-83 34t-35 83z" />
<glyph unicode="&#x131;" d="M149 914v147h471v-914h296v-147h-472v914h-295z" />
<glyph unicode="&#x152;" d="M34 755q0 240 58.5 417t156.5 254.5t206 77.5q31 0 64.5 -9.5t81.5 -57.5v37h510v-148h-332v-508h316v-147h-316v-509h346v-162h-524v37q-64 -57 -98 -62t-51 -5q-109 0 -210 89t-154.5 278.5t-53.5 417.5zM226 741q0 -236 53 -429.5t187 -193.5q66 0 100.5 67t34.5 310 v476q0 252 -35.5 319t-103.5 67q-125 0 -180.5 -175.5t-55.5 -440.5z" />
<glyph unicode="&#x153;" d="M64 542q0 206 72.5 377.5t245.5 171.5q76 0 132 -39.5t93 -118.5q42 79 98 118.5t126 39.5q113 0 192.5 -107t79.5 -417v-59h-384v-58q0 -169 23.5 -224.5t63.5 -81.5t88 -26q98 0 209 74v-164q-134 -57 -239 -57q-80 0 -147 30.5t-123 126.5q-56 -105 -118.5 -131 t-113.5 -26q-84 0 -151.5 59.5t-107 198t-39.5 313.5zM233 517q0 -158 37.5 -278.5t124.5 -120.5q64 0 105.5 81.5t41.5 268.5v97q0 121 -6 169.5t-23 96.5t-50 81.5t-72 30.5q-80 -4 -119 -122t-39 -304zM719 634h207v31q0 176 -28.5 227t-72.5 51q-46 0 -76 -66t-30 -211 v-32z" />
<glyph unicode="&#x178;" d="M49 1474h218l328 -585l327 585h196l-438 -792v-682h-192v682zM259 1753q0 50 35.5 84t82.5 34q48 0 83 -34t35 -84q0 -49 -34.5 -83t-83.5 -34q-48 0 -83 34t-35 83zM672 1753q0 50 35.5 84t82.5 34q48 0 83 -34t35 -84q0 -49 -35 -83t-83 -34t-83 34t-35 83z" />
<glyph unicode="&#x2c6;" d="M304 1224l221 309h118l221 -309h-148l-132 159l-133 -159h-147z" />
<glyph unicode="&#x2da;" d="M407 1400q0 72 51.5 124.5t124.5 52.5q74 0 125.5 -52.5t51.5 -124.5q0 -70 -51.5 -123t-125.5 -53t-125 53t-51 123zM495 1400q0 -36 26 -62t62 -26q37 0 63 26t26 62t-26 62.5t-63 26.5q-36 0 -62 -26.5t-26 -62.5z" />
<glyph unicode="&#x2dc;" d="M275 1224q0 125 48.5 184t122.5 59q59 0 120 -38l40 -24q79 -49 110 -49q57 0 57 111h121q-6 -97 -26 -141.5t-61 -73.5t-91 -29q-61 0 -134 46l-41 27l-23 16q-33 22 -62 22q-21 0 -42 -22t-21 -88h-118z" />
<glyph unicode="&#x2013;" d="M67 502v147h1032v-147h-1032z" />
<glyph unicode="&#x2014;" d="M67 502v117h1032v-117h-1032z" />
<glyph unicode="&#x2018;" d="M403 1127q0 105 45.5 197t124 158t191.5 81v-119q-69 -18 -104.5 -51.5t-57 -85t-21.5 -125.5q89 0 130.5 -50t41.5 -106q0 -66 -46.5 -111.5t-108.5 -45.5q-79 0 -137 69t-58 189z" />
<glyph unicode="&#x2019;" d="M403 869v119q68 18 103.5 51.5t57 85t21.5 125.5q-88 0 -130 50t-42 106q0 66 46.5 111.5t108.5 45.5q80 0 138 -69t58 -189q0 -105 -45.5 -197t-124 -158t-191.5 -81z" />
<glyph unicode="&#x201a;" d="M403 -294q68 18 103.5 51.5t54.5 78t24 132.5q-88 0 -130 49.5t-42 106.5q0 66 46.5 111t108.5 45q80 0 138 -69t58 -188q0 -105 -45.5 -197.5t-124 -158t-191.5 -79.5v118z" />
<glyph unicode="&#x201c;" d="M171 1127q0 105 45.5 197t124 158t191.5 81v-119q-68 -18 -104 -51.5t-57 -85t-21 -125.5q88 0 130 -50t42 -106q0 -66 -47 -111.5t-108 -45.5q-80 0 -138 69t-58 189zM636 1127q0 105 45.5 197t124 158t191.5 81v-119q-69 -18 -104.5 -51.5t-57 -85t-21.5 -125.5 q88 0 130 -50t42 -106q0 -66 -46.5 -111.5t-108.5 -45.5q-81 0 -138 69t-57 189z" />
<glyph unicode="&#x201d;" d="M171 869v119q68 18 104 51.5t57 85t21 125.5q-88 0 -130 50t-42 106q0 66 47 111.5t108 45.5q80 0 138 -69t58 -189q0 -105 -45.5 -197t-124 -158t-191.5 -81zM636 869v119q67 18 103 51.5t57.5 85t21.5 125.5q-88 0 -130 50t-42 106q0 66 46 111.5t108 45.5 q81 0 139 -69t58 -189q0 -105 -46 -197t-124 -158t-191 -81z" />
<glyph unicode="&#x201e;" d="M171 -294q68 18 104 51.5t54.5 78t23.5 132.5q-88 0 -130 49.5t-42 106.5q0 66 47 111t108 45q80 0 138 -69t58 -188q0 -105 -45.5 -197.5t-124 -158t-191.5 -79.5v118zM636 -294q67 18 103 51.5t54.5 78t24.5 132.5q-88 0 -130 49.5t-42 106.5q0 66 46 111t108 45 q81 0 139 -69t58 -188q0 -105 -46 -197.5t-124 -158t-191 -79.5v118z" />
<glyph unicode="&#x2022;" d="M179 730q0 108 54 202.5t149 148.5t202 54t202 -54t149 -148.5t54 -202.5q0 -112 -56 -207t-149 -147t-200 -52t-200 52t-149 147t-56 207z" />
<glyph unicode="&#x2026;" d="M58 92q0 55 41.5 95.5t95.5 40.5q53 0 94.5 -40.5t41.5 -95.5t-41.5 -96t-94.5 -41q-54 0 -95.5 41t-41.5 96zM447 92q0 55 41 95.5t95 40.5t95.5 -40.5t41.5 -95.5t-41.5 -96t-95.5 -41t-95 41t-41 96zM836 92q0 55 41.5 95.5t95.5 40.5t95 -40.5t41 -95.5t-41 -96 t-95 -41t-95.5 41t-41.5 96z" />
<glyph unicode="&#x2039;" d="M314 460v152l476 449l107 -112l-408 -416l408 -424l-107 -109z" />
<glyph unicode="&#x203a;" d="M271 112l407 416l-407 424l106 109l476 -460v-152l-476 -449z" />
<glyph unicode="&#x2122;" d="M2 1367v107h546v-107h-213v-630h-121v630h-212zM606 737v737h119l161 -440l164 440h117v-737h-115v453l-115 -311h-113l-117 312v-454h-101z" />
<glyph unicode="&#xe000;" horiz-adv-x="1060" d="M0 1060h1060v-1060h-1060v1060z" />
<glyph unicode="&#xf001;" d="M24 826v147h235v49q0 210 47.5 311t147 165.5t262.5 64.5q124 0 251 -26v-168q-138 46 -244 46q-85 0 -149.5 -31.5t-101 -102.5t-36.5 -240v-68h619v-973h-176v826h-443v-826h-177v826h-235z" />
<glyph unicode="&#xfb01;" d="M24 826v147h235v49q0 210 47.5 311t147 165.5t262.5 64.5q124 0 251 -26v-168q-138 46 -244 46q-85 0 -149.5 -31.5t-101 -102.5t-36.5 -240v-68h619v-973h-176v826h-443v-826h-177v826h-235z" />
<glyph unicode="&#xf002;" d="M2 826v147h206v49q0 210 47.5 311t147 165.5t260.5 64.5q64 0 127 -7.5t126 -22.5h176v-1533h-176v1369q-69 23 -130 34.5t-114 11.5q-85 0 -149.5 -31.5t-101 -102.5t-36.5 -240v-68h391v-147h-391v-826h-177v826h-206z" />
<glyph unicode="&#xfb02;" d="M2 826v147h206v49q0 210 47.5 311t147 165.5t260.5 64.5q64 0 127 -7.5t126 -22.5h176v-1533h-176v1369q-69 23 -130 34.5t-114 11.5q-85 0 -149.5 -31.5t-101 -102.5t-36.5 -240v-68h391v-147h-391v-826h-177v826h-206z" />
<glyph unicode="&#xfb03;" horiz-adv-x="3502" d="M2485 914v147h471v-914h296v-147h-472v914h-295zM2750 1444q0 60 41 89.5t77 29.5q37 0 78 -29.5t41 -89.5q0 -59 -41 -88.5t-78 -29.5q-36 0 -77 29.5t-41 88.5zM1327 826v147h235v49q0 210 47.5 311t147 165.5t262.5 64.5q124 0 251 -26v-168q-138 46 -244 46 q-85 0 -149.5 -31.5t-101 -102.5t-36.5 -240v-68h421v-147h-421v-826h-177v826h-235zM159 826v147h235v49q0 210 47.5 311t147 165.5t262.5 64.5q124 0 251 -26v-168q-138 46 -244 46q-85 0 -149.5 -31.5t-101 -102.5t-36.5 -240v-68h421v-147h-421v-826h-177v826h-235z" />
<glyph unicode="&#xfb04;" horiz-adv-x="3502" d="M2450 1385v148h494v-1386h331v-147h-508v1385h-317zM1327 826v147h235v49q0 210 47.5 311t147 165.5t262.5 64.5q124 0 251 -26v-168q-138 46 -244 46q-85 0 -149.5 -31.5t-101 -102.5t-36.5 -240v-68h421v-147h-421v-826h-177v826h-235zM159 826v147h235v49 q0 210 47.5 311t147 165.5t262.5 64.5q124 0 251 -26v-168q-138 46 -244 46q-85 0 -149.5 -31.5t-101 -102.5t-36.5 -240v-68h421v-147h-421v-826h-177v826h-235z" />
</font>
</defs>
</svg>
